<svg width="26" height="26" viewBox="0 0 30 30" fill="none" xmlns="http://www.w3.org/2000/svg">
<path fill-rule="evenodd" clip-rule="evenodd" d="M5.53125 24.5704C6.09702 19.8111 10.1619 16.12 15.0923 16.12C20.0226 16.12 24.0875 19.8111 24.6533 24.5704C24.1666 25.1255 23.6381 25.6382 23.0731 26.1027C23.0797 25.9725 23.0831 25.8414 23.0831 25.71C23.0831 21.4942 19.616 17.87 15.0923 17.87C10.9025 17.87 7.6023 20.9937 7.15455 24.8004C7.11953 25.0982 7.10145 25.4016 7.10145 25.71C7.10145 25.8414 7.10482 25.9725 7.1115 26.1027C6.5465 25.6382 6.01796 25.1255 5.53125 24.5704Z" fill="#1A1A1A"/>
<path d="M15 28.125C22.2488 28.125 28.125 22.2488 28.125 15C28.125 7.75126 22.2488 1.875 15 1.875C7.75126 1.875 1.875 7.75126 1.875 15C1.875 22.2488 7.75126 28.125 15 28.125Z" stroke="#1A1A1A" stroke-width="2"/>
<path d="M15 16.6449C17.6869 16.6449 19.865 14.4668 19.865 11.7799C19.865 9.09305 17.6869 6.91492 15 6.91492C12.3131 6.91492 10.135 9.09305 10.135 11.7799C10.135 14.4668 12.3131 16.6449 15 16.6449Z" stroke="#1A1A1A" stroke-width="2"/>
</svg>
