<svg width="14" height="13" viewBox="0 0 14 13" fill="none" xmlns="http://www.w3.org/2000/svg">
<path d="M7.3306 0.407943L8.62499 4.13175C8.71425 4.38855 8.9539 4.56266 9.22571 4.5682L13.1673 4.64853C13.499 4.65529 13.636 5.07688 13.3716 5.27736L10.23 7.65912C10.0134 7.82337 9.92183 8.10509 10.0006 8.36531L11.1422 12.1388C11.2383 12.4564 10.8796 12.7169 10.6073 12.5274L7.37127 10.2756C7.14811 10.1203 6.85189 10.1203 6.62873 10.2756L3.39275 12.5274C3.12036 12.7169 2.76173 12.4564 2.85783 12.1388L3.99944 8.36531C4.07817 8.10509 3.98663 7.82337 3.76998 7.65912L0.628421 5.27736C0.363985 5.07688 0.500968 4.65529 0.832741 4.64853L4.77428 4.5682C5.0461 4.56266 5.28575 4.38855 5.37501 4.13175L6.6694 0.407943C6.77836 0.0944971 7.22164 0.094497 7.3306 0.407943Z" fill="#ECD92D" stroke="black" stroke-width="0.3"/>
</svg>
